<?xml version="1.0" ?><svg id="Layer_1" style="enable-background:new 0 0 64 64;" version="1.1" viewBox="0 0 64 64" xml:space="preserve" xmlns="http://www.w3.org/2000/svg" xmlns:xlink="http://www.w3.org/1999/xlink"><style type="text/css">
	.st0{fill:#56AAFF;}
	.st1{fill:#D9DCE1;}
	.st2{fill:#FFFFFF;}
	.st3{fill:none;stroke:#FFFFFF;stroke-width:2;stroke-miterlimit:10;}
	.st4{fill:#0478ED;}
	.st5{fill:none;stroke:#FFFFFF;stroke-width:2;stroke-linecap:square;stroke-linejoin:round;stroke-miterlimit:10;}
	.st6{fill:none;stroke:#0478ED;stroke-width:2;stroke-miterlimit:10;}
	.st7{fill-rule:evenodd;clip-rule:evenodd;fill:#FFFFFF;}
	.st8{fill-rule:evenodd;clip-rule:evenodd;fill:none;stroke:#FFFFFF;stroke-width:2;stroke-linecap:square;stroke-miterlimit:10;}
	.st9{fill:none;stroke:#56AAFF;stroke-width:9.9179;stroke-linecap:round;stroke-miterlimit:10;}
	.st10{fill:none;stroke:#D9DCE1;stroke-width:2;stroke-miterlimit:10;}
	.st11{fill-rule:evenodd;clip-rule:evenodd;fill:none;stroke:#FFFFFF;stroke-width:2;stroke-miterlimit:10;}
	.st12{fill:none;stroke:#D9DCE1;stroke-width:4;stroke-miterlimit:10;}
	.st13{fill:none;stroke:#56AAFF;stroke-width:3;stroke-miterlimit:10;}
	.st14{fill-rule:evenodd;clip-rule:evenodd;fill:#56AAFF;}
	.st15{fill:none;stroke:#56AAFF;stroke-width:2;stroke-miterlimit:10;}
	.st16{fill:none;stroke:#FFFFFF;stroke-width:2;stroke-linecap:square;stroke-miterlimit:10;}
	.st17{fill:none;stroke:#56AAFF;stroke-width:7;stroke-linecap:square;stroke-miterlimit:10;}
	.st18{fill-rule:evenodd;clip-rule:evenodd;fill:#D9DCE1;}
	
		.st19{fill-rule:evenodd;clip-rule:evenodd;fill:none;stroke:#56AAFF;stroke-width:3;stroke-linecap:round;stroke-linejoin:round;stroke-miterlimit:10;}
	.st20{fill-rule:evenodd;clip-rule:evenodd;fill:none;stroke:#56AAFF;stroke-width:4;stroke-linecap:square;stroke-miterlimit:10;}
	.st21{fill-rule:evenodd;clip-rule:evenodd;fill:#0478ED;}
	.st22{fill:none;stroke:#0478ED;stroke-width:2;stroke-linecap:square;stroke-miterlimit:10;}
	.st23{fill:none;stroke:#0478ED;stroke-width:2;stroke-linecap:square;stroke-miterlimit:10;stroke-dasharray:0.1,4;}
	.st24{fill:none;stroke:#D9DCE1;stroke-width:11.5118;stroke-linecap:round;stroke-miterlimit:10;}
	.st25{fill:none;stroke:#D9DCE1;stroke-width:4;stroke-linecap:square;stroke-miterlimit:10;}
	.st26{fill:none;stroke:#FFFFFF;stroke-width:4;stroke-linecap:square;stroke-linejoin:round;stroke-miterlimit:10;}
	.st27{fill:none;stroke:#D9DCE1;stroke-width:10;stroke-linecap:square;stroke-miterlimit:10;}
	.st28{fill:none;stroke:#FFFFFF;stroke-width:4;stroke-linecap:round;stroke-linejoin:round;stroke-miterlimit:10;}
	.st29{fill:none;stroke:#D9DCE1;stroke-width:8;stroke-linecap:round;stroke-miterlimit:10;}
	.st30{fill:none;stroke:#FFFFFF;stroke-width:3;stroke-miterlimit:10;}
	.st31{fill:none;stroke:#FFFFFF;stroke-width:4;stroke-linecap:square;stroke-miterlimit:10;}
	.st32{fill:none;stroke:#56AAFF;stroke-width:6;stroke-miterlimit:10;}
	.st33{fill:#4A4A70;}
	.st34{fill:none;stroke:#56AAFF;stroke-width:5;stroke-miterlimit:10;}
	.st35{fill:none;stroke:#0478ED;stroke-width:4;stroke-linecap:square;stroke-miterlimit:10;}
	.st36{fill:none;stroke:#0478ED;stroke-width:3;stroke-linecap:square;stroke-miterlimit:10;}
	.st37{fill:none;stroke:#0478ED;stroke-width:2;stroke-linecap:round;stroke-miterlimit:10;}
	.st38{fill:none;stroke:#FFFFFF;stroke-width:4;stroke-linecap:round;stroke-miterlimit:10;}
	.st39{fill:none;stroke:#56AAFF;stroke-width:2;stroke-linecap:round;stroke-linejoin:round;stroke-miterlimit:10;}
	.st40{fill:none;stroke:#0478ED;stroke-width:10;stroke-linecap:square;stroke-miterlimit:10;}
	.st41{fill:none;stroke:#0478ED;stroke-width:3;stroke-miterlimit:10;}
	.st42{fill:none;stroke:#0478ED;stroke-width:9;stroke-linecap:square;stroke-miterlimit:10;}
	.st43{fill:none;stroke:#56AAFF;stroke-width:9;stroke-linecap:square;stroke-miterlimit:10;}
	.st44{fill:none;stroke:#56AAFF;stroke-width:5;stroke-linecap:square;stroke-miterlimit:10;}
	.st45{fill:none;stroke:#56AAFF;stroke-width:3;stroke-linecap:square;stroke-miterlimit:10;}
	.st46{fill:none;stroke:#D9DCE1;stroke-width:2;stroke-linecap:square;stroke-miterlimit:10;stroke-dasharray:0.1,4;}
	.st47{fill:none;stroke:#56AAFF;stroke-width:10;stroke-linecap:square;stroke-miterlimit:10;}
	.st48{fill:none;stroke:#D9DCE1;stroke-width:6;stroke-linecap:square;stroke-miterlimit:10;}
</style><circle class="st0" cx="34" cy="32" r="4"/><path class="st4" d="M18.7,48H16c-0.3,0-0.6-0.2-0.7-0.5l-2.6-11.2l7.2,1.7l-1,2.5c-0.4,1.1-0.5,2.3-0.3,3.4l0.8,3.3  C19.5,47.6,19.1,48,18.7,48z"/><path class="st0" d="M13,27H9.4C8.6,27,8,27.6,8,28.4v7.2C8,36.4,8.6,37,9.4,37H13l17,6.4V20.6L13,27z"/><path class="st4" d="M30.7,45h2.7c0.4,0,0.7-0.3,0.7-0.7V19.7c0-0.4-0.3-0.7-0.7-0.7h-2.7c-0.4,0-0.7,0.3-0.7,0.7v24.7  C30,44.7,30.3,45,30.7,45z"/><g><circle class="st1" cx="44" cy="15" r="7"/></g><g><circle class="st1" cx="49" cy="32" r="7"/></g><path class="st3" d="M51.8,29.1h-1c-0.9,0-1.6,0.7-1.6,1.6v5.7"/><line class="st3" x1="51.6" x2="47.5" y1="32.6" y2="32.6"/><g><circle class="st1" cx="44" cy="49" r="7"/></g><path class="st2" d="M43.9,48.1c0-0.1,0-0.3,0-0.4c0-0.5,0.4-1.1,0.9-1.2c0.6-0.2,1.1-0.1,1.5,0.3c0,0,0.1,0,0.1,0  c0.3-0.1,0.5-0.2,0.8-0.3c0,0,0,0,0.1,0c-0.1,0.3-0.3,0.6-0.6,0.8c0.3,0,0.5-0.1,0.8-0.2c0,0,0,0,0,0c-0.1,0.1-0.2,0.3-0.3,0.4  c-0.1,0.1-0.2,0.2-0.3,0.3c0,0,0,0.1,0,0.1c0,0.9-0.2,1.8-0.8,2.5c-0.6,0.9-1.5,1.4-2.5,1.6c-0.8,0.1-1.5,0.1-2.2-0.2  c-0.3-0.1-0.5-0.2-0.8-0.4c0.8,0.1,1.5-0.1,2.1-0.6c-0.7-0.1-1.1-0.4-1.3-1c0.2,0,0.4,0,0.6,0c-0.4-0.1-0.7-0.3-1-0.7  c-0.1-0.2-0.2-0.5-0.2-0.7c0.2,0.1,0.4,0.2,0.6,0.2c-0.3-0.2-0.5-0.5-0.6-0.9c-0.1-0.4,0-0.7,0.2-1C41.8,47.5,42.7,48,43.9,48.1z"/><path class="st2" d="M46.6,14.7l-3.8-2.2c-0.2-0.1-0.4,0-0.4,0.3v4.4c0,0.2,0.2,0.4,0.4,0.3l3.8-2.2C46.8,15.1,46.8,14.9,46.6,14.7z  "/></svg>